<?xml version="1.0" standalone="no"?>
<!DOCTYPE svg PUBLIC "-//W3C//DTD SVG 20010904//EN"
 "http://www.w3.org/TR/2001/REC-SVG-20010904/DTD/svg10.dtd">
<svg version="1.0" xmlns="http://www.w3.org/2000/svg"
 width="60.000000pt" height="60.000000pt" viewBox="0 0 60.000000 60.000000"
 preserveAspectRatio="xMidYMid meet">

<g transform="translate(0.000000,60.000000) scale(0.100000,-0.100000)"
fill="#fff" stroke="none">
<path d="M77 544 c-4 -4 -7 -85 -7 -181 l0 -173 230 0 230 0 -2 178 -3 177
-221 3 c-121 1 -223 -1 -227 -4z m157 -106 c14 -24 -1 -36 -18 -13 -19 26 -36
10 -36 -35 0 -45 17 -61 36 -35 17 23 32 11 18 -13 -14 -22 -41 -27 -59 -12
-18 15 -20 101 -3 118 17 17 48 11 62 -10z m56 5 c10 -17 10 -17 20 0 21 33
30 16 30 -53 0 -40 -4 -70 -10 -70 -5 0 -10 17 -10 38 0 31 -4 38 -20 38 -16
0 -20 -7 -20 -38 0 -21 -4 -38 -10 -38 -6 0 -10 30 -10 70 0 69 9 86 30 53z
m144 -5 c14 -24 -1 -36 -18 -13 -7 10 -18 15 -24 11 -19 -12 -14 -26 13 -36
30 -12 42 -37 28 -59 -13 -21 -53 -21 -67 1 -14 24 1 36 18 13 7 -10 18 -15
24 -11 19 12 14 24 -15 38 -31 15 -41 42 -22 64 15 19 49 14 63 -8z"/>
</g>
</svg>
